<svg id="Layer_1" data-name="Layer 1" xmlns="http://www.w3.org/2000/svg" viewBox="0 0 291.54 1200"><title>arrow</title><path d="M278.88,1200H26.33A26.33,26.33,0,0,1,0,1173.67v-51H278.88a12.67,12.67,0,0,1,12.66,12.67v52A12.66,12.66,0,0,1,278.88,1200Z" style="fill:#1266f1"/><path d="M47,45.1H75.7a0,0,0,0,1,0,0V1200a0,0,0,0,1,0,0H47a47,47,0,0,1-47-47V92.1a47,47,0,0,1,47-47Z" style="fill:#1266f1"/><path d="M26,45.1H227.11a0,0,0,0,1,0,0v75.7a0,0,0,0,1,0,0H0a0,0,0,0,1,0,0V71.1A26,26,0,0,1,26,45.1Z" style="fill:#1266f1"/><polygon points="161.07 0 161.07 164.29 291.54 82.15 161.07 0" style="fill:#1266f1"/></svg>